<?xml version="1.0" encoding="utf-8"?>
<!-- Generator: Adobe Illustrator 21.0.2, SVG Export Plug-In . SVG Version: 6.00 Build 0)  -->
<svg version="1.1" id="Layer_1" xmlns="http://www.w3.org/2000/svg" xmlns:xlink="http://www.w3.org/1999/xlink" x="0px" y="0px"
	 viewBox="0 0 62.6 71.8" style="enable-background:new 0 0 62.6 71.8;" xml:space="preserve">
<style type="text/css">
	.st0{display:none;}
	.st1{display:inline;fill:none;stroke:#FFFFFF;stroke-miterlimit:10;}
	.st2{display:inline;fill:none;stroke:#231F20;stroke-miterlimit:10;}
	.st3{fill:#FF6699;stroke:#FFFFFF;stroke-miterlimit:10;}
	.st4{fill:none;stroke:#FF6699;stroke-miterlimit:10;}
	.st5{display:inline;opacity:0.34;fill:none;stroke:#FFFFFF;stroke-miterlimit:10;enable-background:new    ;}
	.st6{display:inline;opacity:0.34;}
	.st7{fill:url(#SVGID_1_);}
</style>
<g id="Layer_1_1_" class="st0">
	
		<image style="display:inline;overflow:visible;enable-background:new    ;" width="3036" height="4048" xlink:href="5FDDC7B2EBEF0BD7.jpg"  transform="matrix(0.1434 0 0 0.1434 -364.2556 -329.0793)">
	</image>
</g>
<g id="Layer_12" class="st0">
	
		<image style="display:inline;overflow:visible;enable-background:new    ;" width="2676" height="1608" xlink:href="5FDDC7B2EBEF0BD2.jpg"  transform="matrix(0.2024 0 0 0.2024 -411.1361 -163.7406)">
	</image>
</g>
<g id="Layer_7" class="st0">
	<circle class="st1" cx="-64.3" cy="51.9" r="37.5"/>
	<circle class="st1" cx="-50.8" cy="54.4" r="18"/>
	<circle class="st1" cx="-46.8" cy="60.4" r="18"/>
	<circle class="st1" cx="-77.8" cy="33.4" r="18"/>
	<circle class="st1" cx="-66.8" cy="33.4" r="18"/>
	<circle class="st1" cx="-88.8" cy="50.4" r="18"/>
	<circle class="st1" cx="-89.8" cy="37.4" r="18"/>
	<circle class="st1" cx="-89.8" cy="43.4" r="18"/>
	<circle class="st1" cx="-62.3" cy="40.9" r="9.5"/>
	<circle class="st1" cx="-74.3" cy="65.9" r="9.5"/>
</g>
<g id="Layer_4" class="st0">
</g>
<g id="Layer_5" class="st0">
</g>
<g id="Layer_8" class="st0">
</g>
<g id="Layer_9" class="st0">
</g>
<g id="Layer_10" class="st0">
	<path class="st2" d="M42.6,83.4c1.7,1.8,4.2,3,6.9,3c5.1,0,9.3-4.1,9.5-9.1c0.4,0.6,0-2.5,0-4.9c0-5.6,2.6-10.7,6.7-14
		c0.8-0.4,1.6-0.9,2.3-1.6c2.7-1.5,5.7-2.5,9-2.5c5.5,0,10.4,2.5,13.7,6.4C88.1,54,81.6,49.3,74,49.3c-1,0-2,0.1-3,0.3
		c-0.1-3.8-2.5-7.1-5.8-8.5"/>
</g>
<g id="Layer_6">
</g>
<g id="Layer_7_copy">
</g>
<g id="Layer_11">
	<g>
		<g>
			<path d="M36.4,15.2c3.4-5,7.4-9.6,11.8-13.7c-5.5-1.6-11.5-2-17.6-0.9C20.4,2.5,12,8.3,6.5,16.3c-5.4,7.9-7.8,17.9-5.9,28.1
				C2.5,54.6,8.3,63,16.3,68.5c1.9,1.3,3.9,2.4,6,3.3C20,51.1,25.4,31.2,36.4,15.2z"/>
		</g>
		<path class="st3" d="M3.2,25.4c2,9.5,11.3,15.8,20.9,14c2.4-0.5,4.7-1.4,6.6-2.7c-2-9.5-11.3-15.8-20.9-14
			C7.4,23.2,5.2,24.1,3.2,25.4z"/>
		<path class="st3" d="M15.9,10.9c-2,3.5-2.8,7.8-2,12.1c1.2,6.5,5.8,11.5,11.5,13.6c2-3.5,2.8-7.8,2-12.1
			C26.3,18,21.7,13,15.9,10.9z"/>
		<path class="st4" d="M25.8,60.8c1.6,1.7,3.7,2.7,6,2.4c4.3-0.4,7.3-4.8,7-10c0.4,0.6-0.2-2.6-0.5-4.9c-0.5-5.7,1.1-11,4.2-14.7
			l3.1-5.3l17-8.8c0,0-15.7,4.6-16.5,4.8c-0.4-3.9-2.7-7-5.6-8.2"/>
	</g>
</g>
<g id="Layer_13" class="st0">
	<path class="st5" d="M-193,37.6c4.5,4.8,10.9,7.7,18,7.7c13.4,0,24.3-10.6,24.8-23.9c1.1,1.6,0.1-6.6,0.1-12.8
		c0-14.8,6.8-27.9,17.4-36.6c2.2-1.1,4.3-2.5,6-4.1c7-4.1,15-6.4,23.7-6.4c14.4,0,27.3,6.5,35.9,16.7C-74-39.2-91-51.6-110.9-51.6
		c-2.7,0-5.3,0.3-7.9,0.7C-119-61-125.2-69.5-134-73.2"/>
	<g class="st6">
		<g>
			
				<linearGradient id="SVGID_1_" gradientUnits="userSpaceOnUse" x1="-159.3022" y1="239.2796" x2="-222.1506" y2="145.0071" gradientTransform="matrix(1 0 0 -1 0 143.8413)">
				<stop  offset="1.728806e-02" style="stop-color:#FF6699"/>
				<stop  offset="4.069906e-02" style="stop-color:#FF89B0"/>
				<stop  offset="6.710280e-02" style="stop-color:#FFA8C5"/>
				<stop  offset="9.705756e-02" style="stop-color:#FFC4D7"/>
				<stop  offset="0.1309" style="stop-color:#FFDAE6"/>
				<stop  offset="0.1703" style="stop-color:#FFEBF1"/>
				<stop  offset="0.2191" style="stop-color:#FFF6F9"/>
				<stop  offset="0.2876" style="stop-color:#FFFDFE"/>
				<stop  offset="0.4778" style="stop-color:#FFFFFF"/>
				<stop  offset="0.5573" style="stop-color:#FFFBFC"/>
				<stop  offset="0.6412" style="stop-color:#FFEEF4"/>
				<stop  offset="0.727" style="stop-color:#FFD9E6"/>
				<stop  offset="0.8142" style="stop-color:#FFBCD2"/>
				<stop  offset="0.9025" style="stop-color:#FF96B9"/>
				<stop  offset="0.9904" style="stop-color:#FF689A"/>
				<stop  offset="0.9933" style="stop-color:#FF6699"/>
			</linearGradient>
			<path class="st7" d="M-141.1-79.1c11.2-11.2,23.6-21.1,37-29.7c-13.4-6.9-28.6-10.8-44.7-10.8c-27.1,0-51.7,11-69.4,28.8
				c-17.9,17.7-28.9,42.3-28.9,69.4s11,51.7,28.8,69.4c4.2,4.2,8.8,8.1,13.8,11.5c2.1-29.5,10.1-57.3,22.8-82.3
				c-0.8,0-1.6,0.1-2.5,0.1c-25.7,0-46.5-20.5-47.1-46.1c5.6-2.4,11.8-3.7,18.3-3.7c4.6,0,9,0.7,13.1,1.9
				c0.2-11.1,4.2-21.4,10.8-29.3c13.9,8.2,23.2,23.3,23.2,40.6c0,4.2-0.6,8.3-1.6,12.2C-159.7-58.6-150.9-69.4-141.1-79.1z"/>
		</g>
	</g>
</g>
</svg>
